<mxfile host="app.diagrams.net" agent="Mozilla/5.0 (Windows NT 10.0; Win64; x64) AppleWebKit/537.36 (KHTML, like Gecko) Chrome/127.0.0.0 Safari/537.36" version="24.7.6" pages="2">
  <diagram name="validasi input" id="qDDpxH_aSFVzb3fCPciQ">
    <mxGraphModel dx="1032" dy="493" grid="1" gridSize="10" guides="1" tooltips="1" connect="1" arrows="1" fold="1" page="1" pageScale="1" pageWidth="850" pageHeight="1100" math="0" shadow="0">
      <root>
        <mxCell id="0" />
        <mxCell id="1" parent="0" />
        <mxCell id="nNWCasgSQswJpkUTuxuL-13" value="" style="edgeStyle=orthogonalEdgeStyle;rounded=0;orthogonalLoop=1;jettySize=auto;html=1;startArrow=classic;startFill=1;endArrow=none;endFill=0;" edge="1" parent="1" source="nNWCasgSQswJpkUTuxuL-1" target="nNWCasgSQswJpkUTuxuL-12">
          <mxGeometry relative="1" as="geometry" />
        </mxCell>
        <mxCell id="nNWCasgSQswJpkUTuxuL-23" value="" style="rounded=0;orthogonalLoop=1;jettySize=auto;html=1;" edge="1" parent="1" source="nNWCasgSQswJpkUTuxuL-1" target="nNWCasgSQswJpkUTuxuL-21">
          <mxGeometry relative="1" as="geometry" />
        </mxCell>
        <mxCell id="nNWCasgSQswJpkUTuxuL-25" value="" style="rounded=0;orthogonalLoop=1;jettySize=auto;html=1;" edge="1" parent="1" source="nNWCasgSQswJpkUTuxuL-1" target="nNWCasgSQswJpkUTuxuL-24">
          <mxGeometry relative="1" as="geometry" />
        </mxCell>
        <mxCell id="nNWCasgSQswJpkUTuxuL-1" value="&lt;font style=&quot;font-size: 24px;&quot;&gt;2&lt;/font&gt;" style="ellipse;whiteSpace=wrap;html=1;aspect=fixed;fillColor=#d5e8d4;strokeColor=#82b366;" vertex="1" parent="1">
          <mxGeometry x="80" y="110" width="80" height="80" as="geometry" />
        </mxCell>
        <mxCell id="nNWCasgSQswJpkUTuxuL-12" value="&lt;font style=&quot;font-size: 24px;&quot;&gt;1&lt;/font&gt;" style="ellipse;whiteSpace=wrap;html=1;aspect=fixed;fillColor=#d5e8d4;strokeColor=#82b366;" vertex="1" parent="1">
          <mxGeometry x="80" width="80" height="80" as="geometry" />
        </mxCell>
        <mxCell id="nNWCasgSQswJpkUTuxuL-61" value="" style="rounded=0;orthogonalLoop=1;jettySize=auto;html=1;" edge="1" parent="1" source="nNWCasgSQswJpkUTuxuL-21" target="nNWCasgSQswJpkUTuxuL-60">
          <mxGeometry relative="1" as="geometry" />
        </mxCell>
        <mxCell id="nNWCasgSQswJpkUTuxuL-21" value="&lt;font style=&quot;font-size: 24px;&quot;&gt;9&lt;/font&gt;" style="ellipse;whiteSpace=wrap;html=1;aspect=fixed;fillColor=#d5e8d4;strokeColor=#82b366;" vertex="1" parent="1">
          <mxGeometry y="210" width="80" height="80" as="geometry" />
        </mxCell>
        <mxCell id="nNWCasgSQswJpkUTuxuL-27" value="" style="rounded=0;orthogonalLoop=1;jettySize=auto;html=1;" edge="1" parent="1" source="nNWCasgSQswJpkUTuxuL-24" target="nNWCasgSQswJpkUTuxuL-26">
          <mxGeometry relative="1" as="geometry" />
        </mxCell>
        <mxCell id="nNWCasgSQswJpkUTuxuL-30" value="" style="rounded=0;orthogonalLoop=1;jettySize=auto;html=1;" edge="1" parent="1" source="nNWCasgSQswJpkUTuxuL-24" target="nNWCasgSQswJpkUTuxuL-29">
          <mxGeometry relative="1" as="geometry" />
        </mxCell>
        <mxCell id="nNWCasgSQswJpkUTuxuL-24" value="&lt;span style=&quot;font-size: 24px;&quot;&gt;3&lt;/span&gt;" style="ellipse;whiteSpace=wrap;html=1;aspect=fixed;fillColor=#d5e8d4;strokeColor=#82b366;" vertex="1" parent="1">
          <mxGeometry x="160" y="210" width="80" height="80" as="geometry" />
        </mxCell>
        <mxCell id="nNWCasgSQswJpkUTuxuL-32" value="" style="rounded=0;orthogonalLoop=1;jettySize=auto;html=1;" edge="1" parent="1" source="nNWCasgSQswJpkUTuxuL-26" target="nNWCasgSQswJpkUTuxuL-31">
          <mxGeometry relative="1" as="geometry" />
        </mxCell>
        <mxCell id="nNWCasgSQswJpkUTuxuL-42" value="" style="rounded=0;orthogonalLoop=1;jettySize=auto;html=1;" edge="1" parent="1" source="nNWCasgSQswJpkUTuxuL-26" target="nNWCasgSQswJpkUTuxuL-41">
          <mxGeometry relative="1" as="geometry" />
        </mxCell>
        <mxCell id="nNWCasgSQswJpkUTuxuL-26" value="&lt;span style=&quot;font-size: 24px;&quot;&gt;4&lt;/span&gt;" style="ellipse;whiteSpace=wrap;html=1;aspect=fixed;fillColor=#d5e8d4;strokeColor=#82b366;" vertex="1" parent="1">
          <mxGeometry x="240" y="310" width="80" height="80" as="geometry" />
        </mxCell>
        <mxCell id="nNWCasgSQswJpkUTuxuL-62" style="rounded=0;orthogonalLoop=1;jettySize=auto;html=1;entryX=0.5;entryY=0;entryDx=0;entryDy=0;" edge="1" parent="1" source="nNWCasgSQswJpkUTuxuL-29" target="nNWCasgSQswJpkUTuxuL-60">
          <mxGeometry relative="1" as="geometry" />
        </mxCell>
        <mxCell id="nNWCasgSQswJpkUTuxuL-29" value="&lt;span style=&quot;font-size: 24px;&quot;&gt;10&lt;/span&gt;" style="ellipse;whiteSpace=wrap;html=1;aspect=fixed;fillColor=#d5e8d4;strokeColor=#82b366;" vertex="1" parent="1">
          <mxGeometry x="80" y="310" width="80" height="80" as="geometry" />
        </mxCell>
        <mxCell id="nNWCasgSQswJpkUTuxuL-34" value="" style="rounded=0;orthogonalLoop=1;jettySize=auto;html=1;" edge="1" parent="1" source="nNWCasgSQswJpkUTuxuL-31" target="nNWCasgSQswJpkUTuxuL-33">
          <mxGeometry relative="1" as="geometry" />
        </mxCell>
        <mxCell id="nNWCasgSQswJpkUTuxuL-44" value="" style="rounded=0;orthogonalLoop=1;jettySize=auto;html=1;" edge="1" parent="1" source="nNWCasgSQswJpkUTuxuL-31" target="nNWCasgSQswJpkUTuxuL-43">
          <mxGeometry relative="1" as="geometry" />
        </mxCell>
        <mxCell id="nNWCasgSQswJpkUTuxuL-31" value="&lt;span style=&quot;font-size: 24px;&quot;&gt;5&lt;/span&gt;" style="ellipse;whiteSpace=wrap;html=1;aspect=fixed;fillColor=#d5e8d4;strokeColor=#82b366;" vertex="1" parent="1">
          <mxGeometry x="320" y="420" width="80" height="80" as="geometry" />
        </mxCell>
        <mxCell id="nNWCasgSQswJpkUTuxuL-36" value="" style="rounded=0;orthogonalLoop=1;jettySize=auto;html=1;" edge="1" parent="1" source="nNWCasgSQswJpkUTuxuL-33" target="nNWCasgSQswJpkUTuxuL-35">
          <mxGeometry relative="1" as="geometry" />
        </mxCell>
        <mxCell id="nNWCasgSQswJpkUTuxuL-46" value="" style="rounded=0;orthogonalLoop=1;jettySize=auto;html=1;" edge="1" parent="1" source="nNWCasgSQswJpkUTuxuL-33" target="nNWCasgSQswJpkUTuxuL-45">
          <mxGeometry relative="1" as="geometry" />
        </mxCell>
        <mxCell id="nNWCasgSQswJpkUTuxuL-33" value="&lt;span style=&quot;font-size: 24px;&quot;&gt;6&lt;/span&gt;" style="ellipse;whiteSpace=wrap;html=1;aspect=fixed;fillColor=#d5e8d4;strokeColor=#82b366;" vertex="1" parent="1">
          <mxGeometry x="400" y="520" width="80" height="80" as="geometry" />
        </mxCell>
        <mxCell id="nNWCasgSQswJpkUTuxuL-38" value="" style="rounded=0;orthogonalLoop=1;jettySize=auto;html=1;" edge="1" parent="1" source="nNWCasgSQswJpkUTuxuL-35" target="nNWCasgSQswJpkUTuxuL-37">
          <mxGeometry relative="1" as="geometry" />
        </mxCell>
        <mxCell id="nNWCasgSQswJpkUTuxuL-48" value="" style="rounded=0;orthogonalLoop=1;jettySize=auto;html=1;" edge="1" parent="1" source="nNWCasgSQswJpkUTuxuL-35" target="nNWCasgSQswJpkUTuxuL-47">
          <mxGeometry relative="1" as="geometry" />
        </mxCell>
        <mxCell id="nNWCasgSQswJpkUTuxuL-35" value="&lt;span style=&quot;font-size: 24px;&quot;&gt;7&lt;/span&gt;" style="ellipse;whiteSpace=wrap;html=1;aspect=fixed;fillColor=#d5e8d4;strokeColor=#82b366;" vertex="1" parent="1">
          <mxGeometry x="480" y="620" width="80" height="80" as="geometry" />
        </mxCell>
        <mxCell id="nNWCasgSQswJpkUTuxuL-67" style="rounded=0;orthogonalLoop=1;jettySize=auto;html=1;entryX=0.5;entryY=0;entryDx=0;entryDy=0;" edge="1" parent="1" source="nNWCasgSQswJpkUTuxuL-37" target="nNWCasgSQswJpkUTuxuL-60">
          <mxGeometry relative="1" as="geometry" />
        </mxCell>
        <mxCell id="nNWCasgSQswJpkUTuxuL-37" value="&lt;span style=&quot;font-size: 24px;&quot;&gt;8&lt;/span&gt;" style="ellipse;whiteSpace=wrap;html=1;aspect=fixed;fillColor=#d5e8d4;strokeColor=#82b366;" vertex="1" parent="1">
          <mxGeometry x="560" y="730" width="80" height="80" as="geometry" />
        </mxCell>
        <mxCell id="nNWCasgSQswJpkUTuxuL-63" style="rounded=0;orthogonalLoop=1;jettySize=auto;html=1;entryX=0.5;entryY=0;entryDx=0;entryDy=0;" edge="1" parent="1" source="nNWCasgSQswJpkUTuxuL-41" target="nNWCasgSQswJpkUTuxuL-60">
          <mxGeometry relative="1" as="geometry">
            <mxPoint x="40" y="960" as="targetPoint" />
          </mxGeometry>
        </mxCell>
        <mxCell id="nNWCasgSQswJpkUTuxuL-41" value="&lt;span style=&quot;font-size: 24px;&quot;&gt;11&lt;/span&gt;" style="ellipse;whiteSpace=wrap;html=1;aspect=fixed;fillColor=#d5e8d4;strokeColor=#82b366;" vertex="1" parent="1">
          <mxGeometry x="160" y="420" width="80" height="80" as="geometry" />
        </mxCell>
        <mxCell id="nNWCasgSQswJpkUTuxuL-64" style="rounded=0;orthogonalLoop=1;jettySize=auto;html=1;entryX=0.5;entryY=0;entryDx=0;entryDy=0;" edge="1" parent="1" source="nNWCasgSQswJpkUTuxuL-43" target="nNWCasgSQswJpkUTuxuL-60">
          <mxGeometry relative="1" as="geometry">
            <mxPoint x="40" y="819.9999999999998" as="targetPoint" />
          </mxGeometry>
        </mxCell>
        <mxCell id="nNWCasgSQswJpkUTuxuL-43" value="&lt;span style=&quot;font-size: 24px;&quot;&gt;12&lt;/span&gt;" style="ellipse;whiteSpace=wrap;html=1;aspect=fixed;fillColor=#d5e8d4;strokeColor=#82b366;" vertex="1" parent="1">
          <mxGeometry x="245" y="520" width="80" height="80" as="geometry" />
        </mxCell>
        <mxCell id="nNWCasgSQswJpkUTuxuL-65" style="rounded=0;orthogonalLoop=1;jettySize=auto;html=1;entryX=0.5;entryY=0;entryDx=0;entryDy=0;" edge="1" parent="1" source="nNWCasgSQswJpkUTuxuL-45" target="nNWCasgSQswJpkUTuxuL-60">
          <mxGeometry relative="1" as="geometry" />
        </mxCell>
        <mxCell id="nNWCasgSQswJpkUTuxuL-45" value="&lt;span style=&quot;font-size: 24px;&quot;&gt;13&lt;/span&gt;" style="ellipse;whiteSpace=wrap;html=1;aspect=fixed;fillColor=#d5e8d4;strokeColor=#82b366;" vertex="1" parent="1">
          <mxGeometry x="320" y="620" width="80" height="80" as="geometry" />
        </mxCell>
        <mxCell id="nNWCasgSQswJpkUTuxuL-66" style="rounded=0;orthogonalLoop=1;jettySize=auto;html=1;entryX=0.354;entryY=-0.024;entryDx=0;entryDy=0;entryPerimeter=0;" edge="1" parent="1" source="nNWCasgSQswJpkUTuxuL-47" target="nNWCasgSQswJpkUTuxuL-60">
          <mxGeometry relative="1" as="geometry">
            <mxPoint x="40" y="829.9999999999998" as="targetPoint" />
          </mxGeometry>
        </mxCell>
        <mxCell id="nNWCasgSQswJpkUTuxuL-47" value="&lt;span style=&quot;font-size: 24px;&quot;&gt;14&lt;/span&gt;" style="ellipse;whiteSpace=wrap;html=1;aspect=fixed;fillColor=#d5e8d4;strokeColor=#82b366;" vertex="1" parent="1">
          <mxGeometry x="400" y="710" width="80" height="80" as="geometry" />
        </mxCell>
        <mxCell id="nNWCasgSQswJpkUTuxuL-60" value="&lt;font style=&quot;font-size: 24px;&quot;&gt;15&lt;/font&gt;" style="ellipse;whiteSpace=wrap;html=1;aspect=fixed;fillColor=#d5e8d4;strokeColor=#82b366;" vertex="1" parent="1">
          <mxGeometry x="120" y="900" width="80" height="80" as="geometry" />
        </mxCell>
      </root>
    </mxGraphModel>
  </diagram>
  <diagram name="Copy of validasi input" id="BlqaH-Rotepe7DhOU-Es">
    <mxGraphModel dx="1876" dy="896" grid="1" gridSize="10" guides="1" tooltips="1" connect="1" arrows="1" fold="1" page="1" pageScale="1" pageWidth="850" pageHeight="1100" math="0" shadow="0">
      <root>
        <mxCell id="5ia6WRXQKdDo85ZppIty-0" />
        <mxCell id="5ia6WRXQKdDo85ZppIty-1" parent="5ia6WRXQKdDo85ZppIty-0" />
        <mxCell id="5ia6WRXQKdDo85ZppIty-2" value="" style="edgeStyle=orthogonalEdgeStyle;rounded=0;orthogonalLoop=1;jettySize=auto;html=1;startArrow=classic;startFill=1;endArrow=none;endFill=0;" edge="1" parent="5ia6WRXQKdDo85ZppIty-1" source="5ia6WRXQKdDo85ZppIty-5" target="5ia6WRXQKdDo85ZppIty-6">
          <mxGeometry relative="1" as="geometry" />
        </mxCell>
        <mxCell id="5ia6WRXQKdDo85ZppIty-3" value="" style="rounded=0;orthogonalLoop=1;jettySize=auto;html=1;" edge="1" parent="5ia6WRXQKdDo85ZppIty-1" source="5ia6WRXQKdDo85ZppIty-5" target="5ia6WRXQKdDo85ZppIty-8">
          <mxGeometry relative="1" as="geometry" />
        </mxCell>
        <mxCell id="5ia6WRXQKdDo85ZppIty-4" value="" style="rounded=0;orthogonalLoop=1;jettySize=auto;html=1;" edge="1" parent="5ia6WRXQKdDo85ZppIty-1" source="5ia6WRXQKdDo85ZppIty-5" target="5ia6WRXQKdDo85ZppIty-11">
          <mxGeometry relative="1" as="geometry" />
        </mxCell>
        <mxCell id="5ia6WRXQKdDo85ZppIty-5" value="&lt;font style=&quot;font-size: 24px;&quot;&gt;2&lt;/font&gt;" style="ellipse;whiteSpace=wrap;html=1;aspect=fixed;fillColor=#d5e8d4;strokeColor=#82b366;" vertex="1" parent="5ia6WRXQKdDo85ZppIty-1">
          <mxGeometry x="80" y="110" width="80" height="80" as="geometry" />
        </mxCell>
        <mxCell id="5ia6WRXQKdDo85ZppIty-6" value="&lt;font style=&quot;font-size: 24px;&quot;&gt;1&lt;/font&gt;" style="ellipse;whiteSpace=wrap;html=1;aspect=fixed;fillColor=#d5e8d4;strokeColor=#82b366;" vertex="1" parent="5ia6WRXQKdDo85ZppIty-1">
          <mxGeometry x="80" width="80" height="80" as="geometry" />
        </mxCell>
        <mxCell id="5ia6WRXQKdDo85ZppIty-7" value="" style="rounded=0;orthogonalLoop=1;jettySize=auto;html=1;" edge="1" parent="5ia6WRXQKdDo85ZppIty-1" source="5ia6WRXQKdDo85ZppIty-8" target="5ia6WRXQKdDo85ZppIty-36">
          <mxGeometry relative="1" as="geometry" />
        </mxCell>
        <mxCell id="5ia6WRXQKdDo85ZppIty-8" value="&lt;font style=&quot;font-size: 24px;&quot;&gt;9&lt;/font&gt;" style="ellipse;whiteSpace=wrap;html=1;aspect=fixed;fillColor=#d5e8d4;strokeColor=#82b366;" vertex="1" parent="5ia6WRXQKdDo85ZppIty-1">
          <mxGeometry y="210" width="80" height="80" as="geometry" />
        </mxCell>
        <mxCell id="5ia6WRXQKdDo85ZppIty-9" value="" style="rounded=0;orthogonalLoop=1;jettySize=auto;html=1;" edge="1" parent="5ia6WRXQKdDo85ZppIty-1" source="5ia6WRXQKdDo85ZppIty-11" target="5ia6WRXQKdDo85ZppIty-14">
          <mxGeometry relative="1" as="geometry" />
        </mxCell>
        <mxCell id="5ia6WRXQKdDo85ZppIty-10" value="" style="rounded=0;orthogonalLoop=1;jettySize=auto;html=1;" edge="1" parent="5ia6WRXQKdDo85ZppIty-1" source="5ia6WRXQKdDo85ZppIty-11" target="5ia6WRXQKdDo85ZppIty-16">
          <mxGeometry relative="1" as="geometry" />
        </mxCell>
        <mxCell id="5ia6WRXQKdDo85ZppIty-11" value="&lt;span style=&quot;font-size: 24px;&quot;&gt;3&lt;/span&gt;" style="ellipse;whiteSpace=wrap;html=1;aspect=fixed;fillColor=#d5e8d4;strokeColor=#82b366;" vertex="1" parent="5ia6WRXQKdDo85ZppIty-1">
          <mxGeometry x="160" y="210" width="80" height="80" as="geometry" />
        </mxCell>
        <mxCell id="5ia6WRXQKdDo85ZppIty-12" value="" style="rounded=0;orthogonalLoop=1;jettySize=auto;html=1;" edge="1" parent="5ia6WRXQKdDo85ZppIty-1" source="5ia6WRXQKdDo85ZppIty-14" target="5ia6WRXQKdDo85ZppIty-19">
          <mxGeometry relative="1" as="geometry" />
        </mxCell>
        <mxCell id="5ia6WRXQKdDo85ZppIty-13" value="" style="rounded=0;orthogonalLoop=1;jettySize=auto;html=1;" edge="1" parent="5ia6WRXQKdDo85ZppIty-1" source="5ia6WRXQKdDo85ZppIty-14" target="5ia6WRXQKdDo85ZppIty-29">
          <mxGeometry relative="1" as="geometry" />
        </mxCell>
        <mxCell id="5ia6WRXQKdDo85ZppIty-14" value="&lt;span style=&quot;font-size: 24px;&quot;&gt;4&lt;/span&gt;" style="ellipse;whiteSpace=wrap;html=1;aspect=fixed;fillColor=#d5e8d4;strokeColor=#82b366;" vertex="1" parent="5ia6WRXQKdDo85ZppIty-1">
          <mxGeometry x="240" y="310" width="80" height="80" as="geometry" />
        </mxCell>
        <mxCell id="5ia6WRXQKdDo85ZppIty-15" style="rounded=0;orthogonalLoop=1;jettySize=auto;html=1;entryX=0.5;entryY=0;entryDx=0;entryDy=0;" edge="1" parent="5ia6WRXQKdDo85ZppIty-1" source="5ia6WRXQKdDo85ZppIty-16" target="5ia6WRXQKdDo85ZppIty-36">
          <mxGeometry relative="1" as="geometry" />
        </mxCell>
        <mxCell id="5ia6WRXQKdDo85ZppIty-16" value="&lt;span style=&quot;font-size: 24px;&quot;&gt;10&lt;/span&gt;" style="ellipse;whiteSpace=wrap;html=1;aspect=fixed;fillColor=#d5e8d4;strokeColor=#82b366;" vertex="1" parent="5ia6WRXQKdDo85ZppIty-1">
          <mxGeometry x="80" y="310" width="80" height="80" as="geometry" />
        </mxCell>
        <mxCell id="5ia6WRXQKdDo85ZppIty-17" value="" style="rounded=0;orthogonalLoop=1;jettySize=auto;html=1;" edge="1" parent="5ia6WRXQKdDo85ZppIty-1" source="5ia6WRXQKdDo85ZppIty-19" target="5ia6WRXQKdDo85ZppIty-22">
          <mxGeometry relative="1" as="geometry" />
        </mxCell>
        <mxCell id="5ia6WRXQKdDo85ZppIty-18" value="" style="rounded=0;orthogonalLoop=1;jettySize=auto;html=1;" edge="1" parent="5ia6WRXQKdDo85ZppIty-1" source="5ia6WRXQKdDo85ZppIty-19" target="5ia6WRXQKdDo85ZppIty-31">
          <mxGeometry relative="1" as="geometry" />
        </mxCell>
        <mxCell id="5ia6WRXQKdDo85ZppIty-19" value="&lt;span style=&quot;font-size: 24px;&quot;&gt;5&lt;/span&gt;" style="ellipse;whiteSpace=wrap;html=1;aspect=fixed;fillColor=#d5e8d4;strokeColor=#82b366;" vertex="1" parent="5ia6WRXQKdDo85ZppIty-1">
          <mxGeometry x="320" y="420" width="80" height="80" as="geometry" />
        </mxCell>
        <mxCell id="5ia6WRXQKdDo85ZppIty-20" value="" style="rounded=0;orthogonalLoop=1;jettySize=auto;html=1;" edge="1" parent="5ia6WRXQKdDo85ZppIty-1" source="5ia6WRXQKdDo85ZppIty-22" target="5ia6WRXQKdDo85ZppIty-25">
          <mxGeometry relative="1" as="geometry" />
        </mxCell>
        <mxCell id="5ia6WRXQKdDo85ZppIty-21" value="" style="rounded=0;orthogonalLoop=1;jettySize=auto;html=1;" edge="1" parent="5ia6WRXQKdDo85ZppIty-1" source="5ia6WRXQKdDo85ZppIty-22" target="5ia6WRXQKdDo85ZppIty-33">
          <mxGeometry relative="1" as="geometry" />
        </mxCell>
        <mxCell id="5ia6WRXQKdDo85ZppIty-22" value="&lt;span style=&quot;font-size: 24px;&quot;&gt;6&lt;/span&gt;" style="ellipse;whiteSpace=wrap;html=1;aspect=fixed;fillColor=#d5e8d4;strokeColor=#82b366;" vertex="1" parent="5ia6WRXQKdDo85ZppIty-1">
          <mxGeometry x="400" y="520" width="80" height="80" as="geometry" />
        </mxCell>
        <mxCell id="5ia6WRXQKdDo85ZppIty-23" value="" style="rounded=0;orthogonalLoop=1;jettySize=auto;html=1;" edge="1" parent="5ia6WRXQKdDo85ZppIty-1" source="5ia6WRXQKdDo85ZppIty-25" target="5ia6WRXQKdDo85ZppIty-27">
          <mxGeometry relative="1" as="geometry" />
        </mxCell>
        <mxCell id="5ia6WRXQKdDo85ZppIty-24" value="" style="rounded=0;orthogonalLoop=1;jettySize=auto;html=1;" edge="1" parent="5ia6WRXQKdDo85ZppIty-1" source="5ia6WRXQKdDo85ZppIty-25" target="5ia6WRXQKdDo85ZppIty-35">
          <mxGeometry relative="1" as="geometry" />
        </mxCell>
        <mxCell id="5ia6WRXQKdDo85ZppIty-25" value="&lt;span style=&quot;font-size: 24px;&quot;&gt;7&lt;/span&gt;" style="ellipse;whiteSpace=wrap;html=1;aspect=fixed;fillColor=#d5e8d4;strokeColor=#82b366;" vertex="1" parent="5ia6WRXQKdDo85ZppIty-1">
          <mxGeometry x="480" y="620" width="80" height="80" as="geometry" />
        </mxCell>
        <mxCell id="5ia6WRXQKdDo85ZppIty-26" style="rounded=0;orthogonalLoop=1;jettySize=auto;html=1;entryX=0.5;entryY=0;entryDx=0;entryDy=0;" edge="1" parent="5ia6WRXQKdDo85ZppIty-1" source="5ia6WRXQKdDo85ZppIty-27" target="5ia6WRXQKdDo85ZppIty-36">
          <mxGeometry relative="1" as="geometry" />
        </mxCell>
        <mxCell id="5ia6WRXQKdDo85ZppIty-27" value="&lt;span style=&quot;font-size: 24px;&quot;&gt;8&lt;/span&gt;" style="ellipse;whiteSpace=wrap;html=1;aspect=fixed;fillColor=#d5e8d4;strokeColor=#82b366;" vertex="1" parent="5ia6WRXQKdDo85ZppIty-1">
          <mxGeometry x="560" y="730" width="80" height="80" as="geometry" />
        </mxCell>
        <mxCell id="5ia6WRXQKdDo85ZppIty-28" style="rounded=0;orthogonalLoop=1;jettySize=auto;html=1;entryX=0.5;entryY=0;entryDx=0;entryDy=0;" edge="1" parent="5ia6WRXQKdDo85ZppIty-1" source="5ia6WRXQKdDo85ZppIty-29" target="5ia6WRXQKdDo85ZppIty-36">
          <mxGeometry relative="1" as="geometry">
            <mxPoint x="40" y="960" as="targetPoint" />
          </mxGeometry>
        </mxCell>
        <mxCell id="5ia6WRXQKdDo85ZppIty-29" value="&lt;span style=&quot;font-size: 24px;&quot;&gt;11&lt;/span&gt;" style="ellipse;whiteSpace=wrap;html=1;aspect=fixed;fillColor=#d5e8d4;strokeColor=#82b366;" vertex="1" parent="5ia6WRXQKdDo85ZppIty-1">
          <mxGeometry x="160" y="420" width="80" height="80" as="geometry" />
        </mxCell>
        <mxCell id="5ia6WRXQKdDo85ZppIty-30" style="rounded=0;orthogonalLoop=1;jettySize=auto;html=1;entryX=0.5;entryY=0;entryDx=0;entryDy=0;" edge="1" parent="5ia6WRXQKdDo85ZppIty-1" source="5ia6WRXQKdDo85ZppIty-31" target="5ia6WRXQKdDo85ZppIty-36">
          <mxGeometry relative="1" as="geometry">
            <mxPoint x="40" y="819.9999999999998" as="targetPoint" />
          </mxGeometry>
        </mxCell>
        <mxCell id="5ia6WRXQKdDo85ZppIty-31" value="&lt;span style=&quot;font-size: 24px;&quot;&gt;12&lt;/span&gt;" style="ellipse;whiteSpace=wrap;html=1;aspect=fixed;fillColor=#d5e8d4;strokeColor=#82b366;" vertex="1" parent="5ia6WRXQKdDo85ZppIty-1">
          <mxGeometry x="245" y="520" width="80" height="80" as="geometry" />
        </mxCell>
        <mxCell id="5ia6WRXQKdDo85ZppIty-32" style="rounded=0;orthogonalLoop=1;jettySize=auto;html=1;entryX=0.5;entryY=0;entryDx=0;entryDy=0;" edge="1" parent="5ia6WRXQKdDo85ZppIty-1" source="5ia6WRXQKdDo85ZppIty-33" target="5ia6WRXQKdDo85ZppIty-36">
          <mxGeometry relative="1" as="geometry" />
        </mxCell>
        <mxCell id="5ia6WRXQKdDo85ZppIty-33" value="&lt;span style=&quot;font-size: 24px;&quot;&gt;13&lt;/span&gt;" style="ellipse;whiteSpace=wrap;html=1;aspect=fixed;fillColor=#d5e8d4;strokeColor=#82b366;" vertex="1" parent="5ia6WRXQKdDo85ZppIty-1">
          <mxGeometry x="320" y="620" width="80" height="80" as="geometry" />
        </mxCell>
        <mxCell id="5ia6WRXQKdDo85ZppIty-34" style="rounded=0;orthogonalLoop=1;jettySize=auto;html=1;entryX=0.354;entryY=-0.024;entryDx=0;entryDy=0;entryPerimeter=0;" edge="1" parent="5ia6WRXQKdDo85ZppIty-1" source="5ia6WRXQKdDo85ZppIty-35" target="5ia6WRXQKdDo85ZppIty-36">
          <mxGeometry relative="1" as="geometry">
            <mxPoint x="40" y="829.9999999999998" as="targetPoint" />
          </mxGeometry>
        </mxCell>
        <mxCell id="5ia6WRXQKdDo85ZppIty-35" value="&lt;span style=&quot;font-size: 24px;&quot;&gt;14&lt;/span&gt;" style="ellipse;whiteSpace=wrap;html=1;aspect=fixed;fillColor=#d5e8d4;strokeColor=#82b366;" vertex="1" parent="5ia6WRXQKdDo85ZppIty-1">
          <mxGeometry x="400" y="710" width="80" height="80" as="geometry" />
        </mxCell>
        <mxCell id="5ia6WRXQKdDo85ZppIty-36" value="&lt;font style=&quot;font-size: 24px;&quot;&gt;15&lt;/font&gt;" style="ellipse;whiteSpace=wrap;html=1;aspect=fixed;fillColor=#d5e8d4;strokeColor=#82b366;" vertex="1" parent="5ia6WRXQKdDo85ZppIty-1">
          <mxGeometry x="120" y="900" width="80" height="80" as="geometry" />
        </mxCell>
      </root>
    </mxGraphModel>
  </diagram>
</mxfile>
